PathFileType  4	(X/Y/Z) C:\Users\wagnerel85475\Documents\Thesis\opencap-core\Data\3375ffbc-daeb-4a43-b4f7-ac9899cd4c71\MarkerData\PreAugmentation
DataRate	CameraRate	NumFrames	NumMarkers	Units	OrigDataRate	OrigDataStartFrame	OrigNumFrames
60.0	60.0	11	20	m	60.0	206	822
Frame#	Time	Neck			RShoulder			RElbow			RWrist			LShoulder			LElbow			LWrist			midHip			RHip			RKnee			RAnkle			LHip			LKnee			LAnkle			LBigToe			LSmallToe			LHeel			RBigToe			RSmallToe			RHeel			
		X1	Y1	Z1	X2	Y2	Z2	X3	Y3	Z3	X4	Y4	Z4	X5	Y5	Z5	X6	Y6	Z6	X7	Y7	Z7	X8	Y8	Z8	X9	Y9	Z9	X10	Y10	Z10	X11	Y11	Z11	X12	Y12	Z12	X13	Y13	Z13	X14	Y14	Z14	X15	Y15	Z15	X16	Y16	Z16	X17	Y17	Z17	X18	Y18	Z18	X19	Y19	Z19	X20	Y20	Z20	

206	3.4166667	0.7757700	0.8722600	-0.0489000	0.7717500	0.8737400	0.1077900	0.9642700	0.7507400	0.1586200	1.2846100	0.7928700	0.0670300	0.7722300	0.8723900	-0.2144500	1.0177600	0.6998700	-0.2122400	1.3754600	0.7819600	-0.1060500	0.3417900	0.4541100	-0.0467000	0.3467800	0.4490900	0.0777000	0.7311500	0.2815200	0.1866600	0.5179800	-0.1854300	0.1344200	0.3374700	0.4605800	-0.1768100	0.7298500	0.2995700	-0.2778400	0.5289400	-0.1724100	-0.2490700	0.7433900	-0.2235800	-0.3147800	0.6616100	-0.2236900	-0.3444300	0.4601100	-0.2240000	-0.2255300	0.6992100	-0.2310700	0.2327000	0.6545600	-0.2276500	0.2501100	0.5125700	-0.2163600	0.0924600
207	3.4333333	0.7732400	0.8903300	-0.0495700	0.7646700	0.8932100	0.1110600	0.9642000	0.7839300	0.1625100	1.2966300	0.8227300	0.0656900	0.7644800	0.8860300	-0.2180500	1.0233600	0.7248600	-0.2230400	1.3762000	0.7915500	-0.1058200	0.3372000	0.4775500	-0.0462900	0.3133800	0.4766700	0.0754600	0.7309500	0.2840800	0.1862500	0.5177500	-0.1850300	0.1347400	0.3320500	0.4843000	-0.1761200	0.7294300	0.2999400	-0.2777400	0.5288700	-0.1687300	-0.2485800	0.7526300	-0.2167000	-0.3104400	0.6618400	-0.2236100	-0.3444500	0.4510800	-0.2233100	-0.2209900	0.6998300	-0.2307700	0.2326500	0.6540300	-0.2276400	0.2499700	0.5130300	-0.2162600	0.0921900
208	3.4500000	0.7651300	0.9293800	-0.0526300	0.7618900	0.9235100	0.1042200	0.9578200	0.7998300	0.1703700	1.2904100	0.8477600	0.0696700	0.7613900	0.9300000	-0.2185300	1.0740100	0.7681900	-0.2533200	1.3679100	0.8387500	-0.1104700	0.3402700	0.4976000	-0.0471400	0.3455600	0.4975500	0.0775800	0.7206000	0.2868800	0.1838100	0.5177600	-0.1856300	0.1345500	0.3353800	0.5011100	-0.1768600	0.7200900	0.3012800	-0.2735400	0.5289700	-0.1686700	-0.2485900	0.7520400	-0.2167800	-0.3103000	0.6703500	-0.2205300	-0.3404800	0.4505700	-0.2234700	-0.2210400	0.6993300	-0.2309400	0.2327900	0.6545500	-0.2276400	0.2501900	0.5025800	-0.2233500	0.0979100
209	3.4666667	0.7455400	0.9429200	-0.0448600	0.7538200	0.9513100	0.1077200	0.9449000	0.8313300	0.1565800	1.2885700	0.8696400	0.0625600	0.7522700	0.9442400	-0.2144100	1.0817200	0.8021700	-0.2581300	1.3685100	0.8569700	-0.1103500	0.3478200	0.5117400	-0.0427800	0.3323100	0.5089100	0.0753500	0.7183300	0.2966000	0.1766600	0.5177500	-0.1886500	0.1353900	0.3410300	0.5122400	-0.1725000	0.7198800	0.3016600	-0.2736200	0.5283700	-0.1727900	-0.2491500	0.7530000	-0.2167100	-0.3103700	0.6707700	-0.2205100	-0.3404900	0.4387000	-0.2347300	-0.2259700	0.6998300	-0.2307300	0.2328200	0.6542000	-0.2307800	0.2506600	0.5116700	-0.2225600	0.0936400
210	3.4833333	0.7555300	0.9831800	-0.0487100	0.7717700	0.9715200	0.1069600	0.9828300	0.8445200	0.1721100	1.2903000	0.8866300	0.0691700	0.7597500	0.9816800	-0.2189100	1.0797300	0.8179500	-0.2572500	1.3733100	0.8750200	-0.1137200	0.3513100	0.5208400	-0.0429900	0.3692000	0.5289400	0.0844300	0.7082900	0.2953900	0.1734300	0.5178600	-0.1856500	0.1345300	0.3439900	0.5215600	-0.1729900	0.7107400	0.3024700	-0.2701700	0.5290400	-0.1688400	-0.2487000	0.7520200	-0.2169500	-0.3101700	0.6704300	-0.2205700	-0.3403800	0.4497200	-0.2271000	-0.2296100	0.6992900	-0.2310400	0.2328500	0.6546000	-0.2276500	0.2502400	0.5118100	-0.2201600	0.0932800
211	3.5000000	0.7541500	1.0000400	-0.0413800	0.7626100	1.0011100	0.1112100	0.9686800	0.8717400	0.1651100	1.3005000	0.9229700	0.0545400	0.7422400	0.9966000	-0.2187000	1.0723700	0.8521800	-0.2621700	1.3614300	0.9000200	-0.1137300	0.3472800	0.5512900	-0.0432200	0.3696800	0.5546000	0.0846500	0.6995900	0.2965500	0.1785900	0.5176600	-0.1813500	0.1354200	0.3395900	0.5528800	-0.1726400	0.7099300	0.3064300	-0.2698000	0.5289500	-0.1686900	-0.2486500	0.7438400	-0.2166500	-0.3059600	0.6612800	-0.2239100	-0.3368000	0.4611200	-0.2189100	-0.2251900	0.6998400	-0.2307300	0.2327500	0.6541300	-0.2274800	0.2500600	0.5117400	-0.2225000	0.0935800
212	3.5166667	0.7544400	1.0232800	-0.0490600	0.7635200	1.0180900	0.1111500	0.9983000	0.8831000	0.1777200	1.2899600	0.9317300	0.0692700	0.7408200	1.0315100	-0.2191200	1.0628100	0.8711200	-0.2654900	1.3733100	0.9216600	-0.1070800	0.3500500	0.5687100	-0.0431900	0.3673600	0.5735000	0.0847200	0.6894100	0.3015600	0.1746300	0.5174800	-0.1817000	0.1351400	0.3422600	0.5697800	-0.1731800	0.6918300	0.3022800	-0.2696300	0.5291000	-0.1685200	-0.2487000	0.7429600	-0.2168300	-0.3057800	0.6610100	-0.2238900	-0.3367100	0.4609800	-0.2191000	-0.2252200	0.6990600	-0.2311700	0.2328000	0.6462500	-0.2305600	0.2548000	0.5115900	-0.2129000	0.0931700
213	3.5333333	0.7438900	1.0510400	-0.0451700	0.7519600	1.0494400	0.1080900	0.9519400	0.9196100	0.1660600	1.2978000	0.9738800	0.0404600	0.7406600	1.0516100	-0.2189900	1.0634000	0.8996600	-0.2663600	1.3602700	0.9507500	-0.1133600	0.3468400	0.5801900	-0.0429500	0.3669400	0.5860100	0.0851800	0.6814200	0.3121200	0.1784100	0.5068700	-0.1846700	0.1323300	0.3396000	0.5766400	-0.1726200	0.6825300	0.3033800	-0.2661800	0.5287200	-0.1687400	-0.2487200	0.7353000	-0.2195900	-0.3097900	0.6616300	-0.2236100	-0.3444100	0.4612000	-0.2191600	-0.2251600	0.6897900	-0.2343900	0.2299400	0.6457300	-0.2305300	0.2545700	0.5119300	-0.2123500	0.0928000
214	3.5500000	0.7267400	1.0667100	-0.0442500	0.7436800	1.0726600	0.1126000	0.9536100	0.9403000	0.1620200	1.3015100	0.9797600	0.0616500	0.7390700	1.0725200	-0.2192700	1.0695500	0.9307500	-0.2622200	1.3723600	0.9693200	-0.1066200	0.3500700	0.5957900	-0.0440300	0.3698900	0.6003300	0.0835800	0.6711400	0.3078800	0.1758700	0.5174500	-0.1816000	0.1351800	0.3419700	0.5941300	-0.1732700	0.6738400	0.3047400	-0.2626000	0.5289000	-0.1685000	-0.2487600	0.7342400	-0.2197500	-0.3096200	0.6614500	-0.2203000	-0.3449600	0.4607700	-0.2192000	-0.2252100	0.6891100	-0.2346000	0.2299900	0.6542100	-0.2238400	0.2507500	0.5115700	-0.2126400	0.0932100
215	3.5666667	0.7332600	1.1014600	-0.0489800	0.7527900	1.0968400	0.1154800	0.9825700	0.9587100	0.1699700	1.3061400	1.0000700	0.0498900	0.7393300	1.1033000	-0.2196500	1.0467800	0.9385200	-0.2665800	1.3525300	0.9902300	-0.1162100	0.3569900	0.6213500	-0.0399300	0.3681400	0.6193100	0.0847900	0.6716900	0.3132800	0.1749300	0.5068600	-0.1847200	0.1323900	0.3373400	0.6232200	-0.1649800	0.6734700	0.3123100	-0.2626100	0.5286000	-0.1686900	-0.2487700	0.7344400	-0.2235000	-0.3027600	0.6612700	-0.2206200	-0.3374500	0.4600200	-0.2233700	-0.2256900	0.6899000	-0.2341700	0.2298600	0.6540400	-0.2274500	0.2499300	0.5021000	-0.2185400	0.0982600
216	3.5833333	0.6979400	1.1145600	-0.0472900	0.7346700	1.1245000	0.1170700	0.9520700	0.9942000	0.1616100	1.2850400	1.0277700	0.0483900	0.7197700	1.1186800	-0.2192300	1.0538700	0.9627000	-0.2693000	1.3389200	1.0089100	-0.1097100	0.3599800	0.6339800	-0.0400600	0.3788800	0.6352400	0.0879000	0.6612500	0.3156900	0.1721900	0.5175100	-0.1777700	0.1358200	0.3508200	0.6379500	-0.1696000	0.6559300	0.3196600	-0.2630900	0.5287200	-0.1685400	-0.2487500	0.7247900	-0.2267700	-0.3063200	0.6520500	-0.2235700	-0.3412100	0.4594900	-0.2160800	-0.2257500	0.6974300	-0.2314500	0.2252300	0.6543600	-0.2236700	0.2506300	0.5022300	-0.2159700	0.0979900
